<svg width="52" height="52" viewBox="0 0 52 52" fill="none" xmlns="http://www.w3.org/2000/svg">
<path d="M20.9677 52C9.40613 52 0 42.5939 0 31.0323C0 19.4706 9.40613 10.0645 20.9677 10.0645C32.5294 10.0645 41.9355 19.4706 41.9355 31.0323C41.9355 42.5939 32.5294 52 20.9677 52ZM20.9677 14.2581C11.7185 14.2581 4.19355 21.783 4.19355 31.0323C4.19355 40.2815 11.7185 47.8064 20.9677 47.8064C30.217 47.8064 37.7419 40.2815 37.7419 31.0323C37.7419 21.783 30.217 14.2581 20.9677 14.2581Z" fill="#41B7E9"/>
<path d="M50.3224 0H33.5482C32.6231 0 31.8708 0.752322 31.8708 1.67742V4.12897C26.2212 2.68723 20.0072 3.3171 14.7217 5.95903L15.4899 7.45026C20.5214 4.93581 26.4963 4.38645 31.8708 5.87013V13.1292C32.4486 13.4823 33.0089 13.863 33.5482 14.269V1.67742H38.5805V5.03226C38.5805 5.95735 39.3328 6.70968 40.2579 6.70968H43.6127C44.5378 6.70968 45.2901 5.95735 45.2901 5.03226V1.67742H50.3224V18.4516H37.73C38.1359 18.9909 38.5167 19.5512 38.8698 20.129H47.2712C48.1795 22.6284 48.645 25.2527 48.645 27.9416C48.645 35.5747 45.9645 42.9872 41.0966 48.8599V43.6129H39.4192V52H46.9676V50.3226H42.0661L42.1685 50.201C47.4263 43.9878 50.3224 36.0821 50.3224 27.9416C50.3224 25.2603 49.8955 22.6385 49.0534 20.129H50.3224C51.2475 20.129 51.9998 19.3767 51.9998 18.4516V1.67742C51.9998 0.752322 51.2475 0 50.3224 0ZM43.6127 5.03226H40.2579V1.67742H43.6127V5.03226Z" fill="#1F2428"/>
<path d="M20.9679 13.4193C11.2565 13.4193 3.35498 21.3208 3.35498 31.0322C3.35498 40.7437 11.2565 48.6451 20.9679 48.6451C30.6793 48.6451 38.5808 40.7437 38.5808 31.0322C38.5808 21.3208 30.6793 13.4193 20.9679 13.4193ZM36.8606 31.871C36.6635 35.6317 35.163 39.0444 32.7954 41.6738L30.4562 39.3346L29.2703 40.5206L31.6094 42.8597C28.9801 45.2282 25.5674 46.7279 21.8066 46.925V43.6129H20.1292V46.925C16.3684 46.7279 12.9557 45.2274 10.3263 42.8597L12.6655 40.5206L11.4796 39.3346L9.1404 41.6738C6.77188 39.0444 5.27227 35.6317 5.07517 31.871H8.38724V30.1935H5.07517C5.27227 26.4328 6.77272 23.0201 9.1404 20.3907L11.4796 22.7299L12.6655 21.5439L10.3263 19.2048C12.9557 16.8362 16.3684 15.3366 20.1292 15.1395V18.4516H21.8066V15.1395C25.5674 15.3366 28.9801 16.8371 31.6094 19.2048L29.2703 21.5439L30.4562 22.7299L32.7954 20.3907C35.1639 23.0201 36.6635 26.4328 36.8606 30.1935H33.5485V31.871H36.8606Z" fill="#1F2428"/>
<path d="M25.1611 18.4516H26.8386V20.129H25.1611V18.4516Z" fill="#1F2428"/>
<path d="M25.1611 41.9355H26.8386V43.6129H25.1611V41.9355Z" fill="#1F2428"/>
<path d="M31.8711 25.1613H33.5485V26.8387H31.8711V25.1613Z" fill="#1F2428"/>
<path d="M31.8711 35.2258H33.5485V36.9032H31.8711V35.2258Z" fill="#1F2428"/>
<path d="M15.0967 18.4516H16.7741V20.129H15.0967V18.4516Z" fill="#1F2428"/>
<path d="M15.0967 41.9355H16.7741V43.6129H15.0967V41.9355Z" fill="#1F2428"/>
<path d="M8.38721 25.1613H10.0646V26.8387H8.38721V25.1613Z" fill="#1F2428"/>
<path d="M8.38721 35.2258H10.0646V36.9032H8.38721V35.2258Z" fill="#1F2428"/>
<path d="M28.6728 18.803L22.6693 27.2077C22.1476 26.9746 21.5748 26.8387 20.9675 26.8387C20.1146 26.8387 19.322 27.0979 18.6586 27.5374L14.0121 22.8909L12.8262 24.0768L17.4726 28.7233C17.0331 29.3867 16.774 30.1793 16.774 31.0323C16.774 32.7348 17.798 34.1967 19.2591 34.8534L18.4715 38.3987L20.1095 38.7627L20.8971 35.2191C20.9206 35.2191 20.9432 35.2258 20.9675 35.2258C23.2799 35.2258 25.1611 33.3446 25.1611 31.0323C25.1611 29.9319 24.7258 28.9363 24.0297 28.1874L30.0365 19.7776L28.6728 18.803ZM20.9675 33.5484C19.5803 33.5484 18.4514 32.4195 18.4514 31.0323C18.4514 29.645 19.5803 28.5161 20.9675 28.5161C22.3548 28.5161 23.4837 29.645 23.4837 31.0323C23.4837 32.4195 22.3548 33.5484 20.9675 33.5484Z" fill="#1F2428"/>
<path d="M40.2583 15.0968H41.9357V16.7742H40.2583V15.0968Z" fill="#1F2428"/>
<path d="M43.6128 15.0968H45.2902V16.7742H43.6128V15.0968Z" fill="#1F2428"/>
<path d="M46.9678 15.0968H48.6452V16.7742H46.9678V15.0968Z" fill="#1F2428"/>
<path d="M5.03226 14.2581C5.03226 12.8708 3.90335 11.7419 2.51613 11.7419C1.1289 11.7419 0 12.8708 0 14.2581C0 15.6453 1.1289 16.7742 2.51613 16.7742C3.90335 16.7742 5.03226 15.6453 5.03226 14.2581ZM2.51613 15.0968C2.05316 15.0968 1.67742 14.721 1.67742 14.2581C1.67742 13.7951 2.05316 13.4194 2.51613 13.4194C2.9791 13.4194 3.35484 13.7951 3.35484 14.2581C3.35484 14.721 2.9791 15.0968 2.51613 15.0968Z" fill="#1F2428"/>
<path d="M7.54836 11.7419C8.93558 11.7419 10.0645 10.613 10.0645 9.22582C10.0645 7.83859 8.93558 6.70969 7.54836 6.70969C6.16113 6.70969 5.03223 7.83859 5.03223 9.22582C5.03223 10.613 6.16113 11.7419 7.54836 11.7419ZM7.54836 8.38711C8.01132 8.38711 8.38707 8.76285 8.38707 9.22582C8.38707 9.68878 8.01132 10.0645 7.54836 10.0645C7.08539 10.0645 6.70965 9.68878 6.70965 9.22582C6.70965 8.76285 7.08539 8.38711 7.54836 8.38711Z" fill="#1F2428"/>
<path d="M11.7417 6.70969H13.4191V8.38711H11.7417V6.70969Z" fill="#1F2428"/>
</svg>
