<svg width="46" height="46" viewBox="0 0 46 46" fill="none" xmlns="http://www.w3.org/2000/svg">
<circle cx="23" cy="23" r="22.25" fill="white" stroke="#675DA9" stroke-width="1.5"/>
<path d="M31.7896 14.178C31.2358 13.6688 28.9936 12.0386 23.9957 12.0163C23.9957 12.0163 18.1045 11.6589 15.2325 14.2941C13.6336 15.8931 13.0708 18.2291 13.0127 21.1323C12.9547 24.031 12.8787 29.4666 18.1179 30.9406H18.1223L18.1179 33.1872C18.1179 33.1872 18.0866 34.0983 18.6851 34.2815C19.4087 34.5048 19.8374 33.8125 20.5297 33.0666C20.9094 32.6557 21.432 32.0572 21.8295 31.5971C25.4116 31.8964 28.1673 31.2086 28.48 31.1058C29.2036 30.8691 33.2993 30.3465 33.9648 24.9109C34.6526 19.3189 33.6298 15.777 31.7896 14.178ZM32.3971 24.5178C31.8343 29.0557 28.5157 29.3416 27.9038 29.5381C27.6448 29.623 25.224 30.2259 22.1779 30.0249C22.1779 30.0249 19.9089 32.7629 19.2032 33.473C19.0915 33.5847 18.962 33.6294 18.8772 33.607C18.7566 33.5758 18.7208 33.4328 18.7253 33.2229C18.7253 32.9192 18.7432 29.4845 18.7432 29.4845C18.7387 29.4845 18.7387 29.4845 18.7432 29.4845C14.308 28.2562 14.567 23.629 14.6162 21.2082C14.6653 18.7874 15.1209 16.7998 16.4742 15.4644C18.8995 13.2669 23.9064 13.5929 23.9064 13.5929C28.1316 13.6108 30.1549 14.8837 30.6239 15.308C32.1827 16.648 32.9777 19.8415 32.3971 24.5178Z" fill="#675DA9"/>
<path d="M26.0546 21.2931C25.9072 21.2931 25.7822 21.177 25.7733 21.0251C25.7241 20.0648 25.273 19.5958 24.3529 19.5467C24.1966 19.5378 24.076 19.4038 24.0849 19.2475C24.0939 19.0911 24.2279 18.9705 24.3842 18.9795C25.5991 19.0465 26.278 19.7432 26.3405 20.9938C26.3494 21.1502 26.2288 21.2842 26.0725 21.2886C26.0636 21.2931 26.0591 21.2931 26.0546 21.2931Z" fill="#675DA9"/>
<path d="M27.5019 21.7756H27.4975C27.3411 21.7712 27.2161 21.6417 27.2205 21.4853C27.2429 20.5206 26.966 19.7389 26.3764 19.0958C25.7913 18.4526 24.9829 18.1042 23.9154 18.0283C23.7591 18.0149 23.6429 17.8809 23.6563 17.7246C23.6697 17.5683 23.8037 17.4521 23.96 17.4655C25.166 17.5549 26.1173 17.9747 26.7962 18.7161C27.4796 19.462 27.8101 20.3955 27.7878 21.4987C27.7833 21.6551 27.6538 21.7756 27.5019 21.7756Z" fill="#675DA9"/>
<path d="M28.985 22.3563C28.8286 22.3563 28.7036 22.2312 28.7036 22.0749C28.6902 20.3464 28.1944 19.0288 27.185 18.0417C26.189 17.068 24.925 16.5722 23.4376 16.5588C23.2813 16.5588 23.1562 16.4293 23.1562 16.273C23.1562 16.1166 23.2858 15.9916 23.4376 15.9916C25.0768 16.005 26.4703 16.5543 27.5736 17.6352C28.6812 18.7161 29.2485 20.2079 29.2663 22.0659C29.2708 22.2267 29.1457 22.3563 28.985 22.3563C28.9894 22.3563 28.9894 22.3563 28.985 22.3563Z" fill="#675DA9"/>
<path d="M24.4198 24.7904C24.4198 24.7904 24.8173 24.8261 25.0317 24.5626L25.4471 24.04C25.6481 23.781 26.1349 23.6157 26.6084 23.8792C26.8719 24.0266 27.3498 24.3214 27.6446 24.5403C27.9617 24.7725 28.6049 25.3085 28.6094 25.313C28.9175 25.572 28.989 25.9517 28.7791 26.3581C28.7791 26.3581 28.7791 26.3626 28.7791 26.367C28.5647 26.7467 28.2744 27.104 27.9126 27.4345C27.9081 27.4345 27.9081 27.439 27.9037 27.439C27.6044 27.6891 27.3096 27.832 27.0238 27.8633C26.988 27.8722 26.9478 27.8722 26.8942 27.8722C26.7692 27.8722 26.6441 27.8544 26.5191 27.8142L26.5101 27.8008C26.0635 27.6757 25.3221 27.3631 24.0893 26.6797C23.2854 26.2375 22.6199 25.7864 22.0526 25.3353C21.7534 25.0986 21.4497 24.8351 21.137 24.5224C21.1281 24.5135 21.1147 24.5001 21.1057 24.4911C21.0968 24.4822 21.0834 24.4688 21.0745 24.4599C21.0655 24.4509 21.0521 24.4375 21.0432 24.4286C21.0343 24.4197 21.0209 24.4063 21.0119 24.3973C20.7038 24.0847 20.4358 23.781 20.199 23.4817C19.7479 22.9189 19.2968 22.249 18.8546 21.445C18.1713 20.2078 17.8586 19.4664 17.7336 19.0242L17.7202 19.0153C17.68 18.8902 17.6621 18.7652 17.6621 18.6401C17.6621 18.5865 17.6621 18.5463 17.671 18.5106C17.7068 18.2203 17.8497 17.9299 18.0954 17.6307C18.0954 17.6262 18.0998 17.6262 18.0998 17.6217C18.4303 17.2555 18.7877 16.9696 19.1673 16.7553C19.1673 16.7553 19.1718 16.7553 19.1762 16.7553C19.5782 16.5453 19.9579 16.6168 20.2214 16.925C20.2214 16.925 20.7618 17.5726 20.9941 17.8897C21.2129 18.189 21.5077 18.6624 21.6551 18.9259C21.9186 19.3994 21.7534 19.8862 21.4943 20.0872L20.9717 20.5026C20.7082 20.717 20.744 21.1145 20.744 21.1145C20.744 21.1145 21.5166 24.0534 24.4198 24.7904Z" fill="#675DA9"/>
</svg>
